<svg xmlns="http://www.w3.org/2000/svg" width="141" height="20" fill="none"><g fill="#fff" clip-path="url(#a)"><path fill-rule="evenodd" d="M0 19.958h19.916V.042H0v19.916Zm17.88-2.037V2.08H2.037V17.92H17.88Z" clip-rule="evenodd"/><path d="M40.55 11.753h-2.145c-.312 1.944-1.613 3.062-3.41 3.062-2.384 0-3.942-1.852-3.942-4.804 0-2.915 1.503-4.803 3.814-4.803 1.87 0 3.098 1.1 3.447 3.08h2.145c-.422-2.897-2.75-4.786-5.666-4.786-3.502 0-5.922 2.897-5.922 6.51 0 3.721 2.475 6.508 5.977 6.508 2.916 0 5.262-1.87 5.703-4.767Z"/><path fill-rule="evenodd" d="M50.394 11.753c0-2.475-1.705-4.767-4.492-4.767s-4.492 2.292-4.492 4.767c0 2.476 1.705 4.767 4.492 4.767s4.492-2.291 4.492-4.767Zm-6.876 0c0-1.962.862-3.282 2.384-3.282 1.54 0 2.402 1.32 2.402 3.282 0 1.944-.862 3.282-2.402 3.282-1.522 0-2.384-1.338-2.384-3.282ZM58.193 14.412h-.055c-.44 1.265-1.503 2.108-2.897 2.108-2.494 0-3.85-2.2-3.85-4.767s1.411-4.767 3.85-4.767c1.394 0 2.457.825 2.897 2.09h.055v-5.39h1.962v12.651h-1.962v-1.925Zm-2.31-5.94c-1.522 0-2.384 1.32-2.384 3.281 0 1.944.862 3.282 2.384 3.282 1.54 0 2.383-1.338 2.383-3.282 0-1.962-.843-3.282-2.383-3.282ZM70.018 13.495H68.02c-.22.734-.734 1.54-1.925 1.54-1.394 0-2.365-.972-2.457-2.64h6.545c.275-3.19-1.521-5.409-4.253-5.409s-4.29 2.237-4.29 4.767c0 2.53 1.594 4.767 4.326 4.767 2.237 0 3.667-1.21 4.052-3.025ZM65.93 8.471c1.338 0 2.127.954 2.255 2.439h-4.529c.129-1.485.935-2.439 2.274-2.439Z" clip-rule="evenodd"/><path d="M77.92 9.058c2.383.55 3.575 1.797 3.575 3.795 0 2.109-2.053 3.667-4.987 3.667-3.355 0-5.17-2.346-5.372-4.638h2.145c.128 1.65 1.467 2.933 3.245 2.933 1.614 0 2.806-.697 2.806-1.87 0-1.027-.77-1.577-2.402-1.962l-1.834-.421c-2.475-.587-3.703-1.742-3.703-3.503 0-2.126 2.09-3.557 4.638-3.557 3.227 0 4.877 1.76 5.097 3.943h-2.145c-.165-1.504-1.43-2.237-2.915-2.237-1.448 0-2.494.623-2.494 1.705 0 .862.642 1.265 2.512 1.705l1.834.44Z"/><path fill-rule="evenodd" d="M89.207 14.412h.056v1.925h1.961V7.17h-1.962v1.907h-.055c-.44-1.265-1.503-2.09-2.897-2.09-2.438 0-3.85 2.2-3.85 4.767s1.357 4.767 3.85 4.767c1.394 0 2.457-.843 2.897-2.108Zm-4.638-2.659c0-1.962.88-3.282 2.365-3.282 1.485 0 2.402 1.32 2.402 3.282 0 1.944-.917 3.282-2.402 3.282-1.467 0-2.365-1.338-2.365-3.282Z" clip-rule="evenodd"/><path d="M95.22 10.836v5.501h-1.998V7.17h1.944v1.797h.036c.385-1.283 1.339-1.98 2.677-1.98 2.017 0 3.007 1.375 3.007 3.392v5.96h-1.998v-5.373c0-1.705-.605-2.475-1.834-2.475-1.228 0-1.833.843-1.833 2.346Z"/><path fill-rule="evenodd" d="M109.061 14.412h.055v1.925h1.962V3.686h-1.962v5.39h-.055c-.44-1.265-1.504-2.09-2.897-2.09-2.439 0-3.851 2.2-3.851 4.767s1.357 4.767 3.851 4.767c1.393 0 2.457-.843 2.897-2.108Zm-4.639-2.659c0-1.962.862-3.282 2.384-3.282 1.54 0 2.383 1.32 2.383 3.282 0 1.944-.843 3.282-2.383 3.282-1.522 0-2.384-1.338-2.384-3.282ZM117.989 6.986c2.439 0 3.851 2.2 3.851 4.767s-1.357 4.767-3.851 4.767c-1.393 0-2.457-.843-2.897-2.108h-.055v1.925h-1.961V3.686h1.961v5.39h.055c.44-1.265 1.504-2.09 2.897-2.09Zm-.641 1.485c-1.54 0-2.384 1.32-2.384 3.282 0 1.944.844 3.282 2.384 3.282 1.522 0 2.383-1.338 2.383-3.282 0-1.962-.861-3.282-2.383-3.282ZM131.831 11.753c0-2.475-1.705-4.767-4.492-4.767s-4.492 2.292-4.492 4.767c0 2.476 1.705 4.767 4.492 4.767s4.492-2.291 4.492-4.767Zm-6.875 0c0-1.962.861-3.282 2.383-3.282 1.54 0 2.402 1.32 2.402 3.282 0 1.944-.862 3.282-2.402 3.282-1.522 0-2.383-1.338-2.383-3.282Z" clip-rule="evenodd"/><path d="m136.306 12.78-2.439 3.557h-2.255l3.52-4.932-3.062-4.235h2.255l1.981 2.86 1.98-2.86h2.237l-3.044 4.217 3.502 4.95h-2.237l-2.438-3.557Z"/></g><defs><clipPath id="a"><path fill="#fff" d="M0 0h141v20H0z"/></clipPath></defs></svg>